<svg xmlns="http://www.w3.org/2000/svg" version="1.1" xmlns:xlink="http://www.w3.org/1999/xlink" xmlns:svgjs="http://svgjs.dev/svgjs" viewBox="0 0 800 800" width="800" height="800"><g stroke-width="1" stroke="hsla(129, 1%, 61%, 1)" fill="none"><rect width="50" height="44.44444444444444" x="0" y="0"></rect><rect width="50" height="44.44444444444444" x="50" y="0"></rect><rect width="50" height="44.44444444444444" x="100" y="0"></rect><rect width="50" height="44.44444444444444" x="150" y="0"></rect><rect width="50" height="44.44444444444444" x="200" y="0"></rect><rect width="50" height="44.44444444444444" x="250" y="0"></rect><rect width="50" height="44.44444444444444" x="300" y="0"></rect><rect width="50" height="44.44444444444444" x="350" y="0"></rect><rect width="50" height="44.44444444444444" x="400" y="0"></rect><rect width="50" height="44.44444444444444" x="450" y="0"></rect><rect width="50" height="44.44444444444444" x="500" y="0"></rect><rect width="50" height="44.44444444444444" x="550" y="0"></rect><rect width="50" height="44.44444444444444" x="600" y="0"></rect><rect width="50" height="44.44444444444444" x="650" y="0"></rect><rect width="50" height="44.44444444444444" x="700" y="0"></rect><rect width="50" height="44.44444444444444" x="750" y="0"></rect><rect width="50" height="44.44444444444444" x="800" y="0"></rect><rect width="50" height="44.44444444444444" x="0" y="44.44444444444444"></rect><rect width="50" height="44.44444444444444" x="50" y="44.44444444444444"></rect><rect width="50" height="44.44444444444444" x="100" y="44.44444444444444"></rect><rect width="50" height="44.44444444444444" x="150" y="44.44444444444444"></rect><rect width="50" height="44.44444444444444" x="200" y="44.44444444444444"></rect><rect width="50" height="44.44444444444444" x="250" y="44.44444444444444"></rect><rect width="50" height="44.44444444444444" x="300" y="44.44444444444444"></rect><rect width="50" height="44.44444444444444" x="350" y="44.44444444444444"></rect><rect width="50" height="44.44444444444444" x="400" y="44.44444444444444"></rect><rect width="50" height="44.44444444444444" x="450" y="44.44444444444444"></rect><rect width="50" height="44.44444444444444" x="500" y="44.44444444444444"></rect><rect width="50" height="44.44444444444444" x="550" y="44.44444444444444"></rect><rect width="50" height="44.44444444444444" x="600" y="44.44444444444444"></rect><rect width="50" height="44.44444444444444" x="650" y="44.44444444444444"></rect><rect width="50" height="44.44444444444444" x="700" y="44.44444444444444"></rect><rect width="50" height="44.44444444444444" x="750" y="44.44444444444444"></rect><rect width="50" height="44.44444444444444" x="800" y="44.44444444444444"></rect><rect width="50" height="44.44444444444444" x="0" y="88.88888888888889"></rect><rect width="50" height="44.44444444444444" x="50" y="88.88888888888889"></rect><rect width="50" height="44.44444444444444" x="100" y="88.88888888888889"></rect><rect width="50" height="44.44444444444444" x="150" y="88.88888888888889"></rect><rect width="50" height="44.44444444444444" x="200" y="88.88888888888889"></rect><rect width="50" height="44.44444444444444" x="250" y="88.88888888888889"></rect><rect width="50" height="44.44444444444444" x="300" y="88.88888888888889"></rect><rect width="50" height="44.44444444444444" x="350" y="88.88888888888889"></rect><rect width="50" height="44.44444444444444" x="400" y="88.88888888888889"></rect><rect width="50" height="44.44444444444444" x="450" y="88.88888888888889"></rect><rect width="50" height="44.44444444444444" x="500" y="88.88888888888889"></rect><rect width="50" height="44.44444444444444" x="550" y="88.88888888888889"></rect><rect width="50" height="44.44444444444444" x="600" y="88.88888888888889"></rect><rect width="50" height="44.44444444444444" x="650" y="88.88888888888889"></rect><rect width="50" height="44.44444444444444" x="700" y="88.88888888888889"></rect><rect width="50" height="44.44444444444444" x="750" y="88.88888888888889"></rect><rect width="50" height="44.44444444444444" x="800" y="88.88888888888889"></rect><rect width="50" height="44.44444444444444" x="0" y="133.33333333333331"></rect><rect width="50" height="44.44444444444444" x="50" y="133.33333333333331"></rect><rect width="50" height="44.44444444444444" x="100" y="133.33333333333331"></rect><rect width="50" height="44.44444444444444" x="150" y="133.33333333333331"></rect><rect width="50" height="44.44444444444444" x="200" y="133.33333333333331"></rect><rect width="50" height="44.44444444444444" x="250" y="133.33333333333331"></rect><rect width="50" height="44.44444444444444" x="300" y="133.33333333333331"></rect><rect width="50" height="44.44444444444444" x="350" y="133.33333333333331"></rect><rect width="50" height="44.44444444444444" x="400" y="133.33333333333331"></rect><rect width="50" height="44.44444444444444" x="450" y="133.33333333333331"></rect><rect width="50" height="44.44444444444444" x="500" y="133.33333333333331"></rect><rect width="50" height="44.44444444444444" x="550" y="133.33333333333331"></rect><rect width="50" height="44.44444444444444" x="600" y="133.33333333333331"></rect><rect width="50" height="44.44444444444444" x="650" y="133.33333333333331"></rect><rect width="50" height="44.44444444444444" x="700" y="133.33333333333331"></rect><rect width="50" height="44.44444444444444" x="750" y="133.33333333333331"></rect><rect width="50" height="44.44444444444444" x="800" y="133.33333333333331"></rect><rect width="50" height="44.44444444444444" x="0" y="177.77777777777777"></rect><rect width="50" height="44.44444444444444" x="50" y="177.77777777777777"></rect><rect width="50" height="44.44444444444444" x="100" y="177.77777777777777"></rect><rect width="50" height="44.44444444444444" x="150" y="177.77777777777777"></rect><rect width="50" height="44.44444444444444" x="200" y="177.77777777777777"></rect><rect width="50" height="44.44444444444444" x="250" y="177.77777777777777"></rect><rect width="50" height="44.44444444444444" x="300" y="177.77777777777777"></rect><rect width="50" height="44.44444444444444" x="350" y="177.77777777777777"></rect><rect width="50" height="44.44444444444444" x="400" y="177.77777777777777"></rect><rect width="50" height="44.44444444444444" x="450" y="177.77777777777777"></rect><rect width="50" height="44.44444444444444" x="500" y="177.77777777777777"></rect><rect width="50" height="44.44444444444444" x="550" y="177.77777777777777"></rect><rect width="50" height="44.44444444444444" x="600" y="177.77777777777777"></rect><rect width="50" height="44.44444444444444" x="650" y="177.77777777777777"></rect><rect width="50" height="44.44444444444444" x="700" y="177.77777777777777"></rect><rect width="50" height="44.44444444444444" x="750" y="177.77777777777777"></rect><rect width="50" height="44.44444444444444" x="800" y="177.77777777777777"></rect><rect width="50" height="44.44444444444444" x="0" y="222.22222222222223"></rect><rect width="50" height="44.44444444444444" x="50" y="222.22222222222223"></rect><rect width="50" height="44.44444444444444" x="100" y="222.22222222222223"></rect><rect width="50" height="44.44444444444444" x="150" y="222.22222222222223"></rect><rect width="50" height="44.44444444444444" x="200" y="222.22222222222223"></rect><rect width="50" height="44.44444444444444" x="250" y="222.22222222222223"></rect><rect width="50" height="44.44444444444444" x="300" y="222.22222222222223"></rect><rect width="50" height="44.44444444444444" x="350" y="222.22222222222223"></rect><rect width="50" height="44.44444444444444" x="400" y="222.22222222222223"></rect><rect width="50" height="44.44444444444444" x="450" y="222.22222222222223"></rect><rect width="50" height="44.44444444444444" x="500" y="222.22222222222223"></rect><rect width="50" height="44.44444444444444" x="550" y="222.22222222222223"></rect><rect width="50" height="44.44444444444444" x="600" y="222.22222222222223"></rect><rect width="50" height="44.44444444444444" x="650" y="222.22222222222223"></rect><rect width="50" height="44.44444444444444" x="700" y="222.22222222222223"></rect><rect width="50" height="44.44444444444444" x="750" y="222.22222222222223"></rect><rect width="50" height="44.44444444444444" x="800" y="222.22222222222223"></rect><rect width="50" height="44.44444444444444" x="0" y="266.6666666666667"></rect><rect width="50" height="44.44444444444444" x="50" y="266.6666666666667"></rect><rect width="50" height="44.44444444444444" x="100" y="266.6666666666667"></rect><rect width="50" height="44.44444444444444" x="150" y="266.6666666666667"></rect><rect width="50" height="44.44444444444444" x="200" y="266.6666666666667"></rect><rect width="50" height="44.44444444444444" x="250" y="266.6666666666667"></rect><rect width="50" height="44.44444444444444" x="300" y="266.6666666666667"></rect><rect width="50" height="44.44444444444444" x="350" y="266.6666666666667"></rect><rect width="50" height="44.44444444444444" x="400" y="266.6666666666667"></rect><rect width="50" height="44.44444444444444" x="450" y="266.6666666666667"></rect><rect width="50" height="44.44444444444444" x="500" y="266.6666666666667"></rect><rect width="50" height="44.44444444444444" x="550" y="266.6666666666667"></rect><rect width="50" height="44.44444444444444" x="600" y="266.6666666666667"></rect><rect width="50" height="44.44444444444444" x="650" y="266.6666666666667"></rect><rect width="50" height="44.44444444444444" x="700" y="266.6666666666667"></rect><rect width="50" height="44.44444444444444" x="750" y="266.6666666666667"></rect><rect width="50" height="44.44444444444444" x="800" y="266.6666666666667"></rect><rect width="50" height="44.44444444444444" x="0" y="311.11111111111114"></rect><rect width="50" height="44.44444444444444" x="50" y="311.11111111111114"></rect><rect width="50" height="44.44444444444444" x="100" y="311.11111111111114"></rect><rect width="50" height="44.44444444444444" x="150" y="311.11111111111114"></rect><rect width="50" height="44.44444444444444" x="200" y="311.11111111111114"></rect><rect width="50" height="44.44444444444444" x="250" y="311.11111111111114"></rect><rect width="50" height="44.44444444444444" x="300" y="311.11111111111114"></rect><rect width="50" height="44.44444444444444" x="350" y="311.11111111111114"></rect><rect width="50" height="44.44444444444444" x="400" y="311.11111111111114"></rect><rect width="50" height="44.44444444444444" x="450" y="311.11111111111114"></rect><rect width="50" height="44.44444444444444" x="500" y="311.11111111111114"></rect><rect width="50" height="44.44444444444444" x="550" y="311.11111111111114"></rect><rect width="50" height="44.44444444444444" x="600" y="311.11111111111114"></rect><rect width="50" height="44.44444444444444" x="650" y="311.11111111111114"></rect><rect width="50" height="44.44444444444444" x="700" y="311.11111111111114"></rect><rect width="50" height="44.44444444444444" x="750" y="311.11111111111114"></rect><rect width="50" height="44.44444444444444" x="800" y="311.11111111111114"></rect><rect width="50" height="44.44444444444444" x="0" y="355.5555555555556"></rect><rect width="50" height="44.44444444444444" x="50" y="355.5555555555556"></rect><rect width="50" height="44.44444444444444" x="100" y="355.5555555555556"></rect><rect width="50" height="44.44444444444444" x="150" y="355.5555555555556"></rect><rect width="50" height="44.44444444444444" x="200" y="355.5555555555556"></rect><rect width="50" height="44.44444444444444" x="250" y="355.5555555555556"></rect><rect width="50" height="44.44444444444444" x="300" y="355.5555555555556"></rect><rect width="50" height="44.44444444444444" x="350" y="355.5555555555556"></rect><rect width="50" height="44.44444444444444" x="400" y="355.5555555555556"></rect><rect width="50" height="44.44444444444444" x="450" y="355.5555555555556"></rect><rect width="50" height="44.44444444444444" x="500" y="355.5555555555556"></rect><rect width="50" height="44.44444444444444" x="550" y="355.5555555555556"></rect><rect width="50" height="44.44444444444444" x="600" y="355.5555555555556"></rect><rect width="50" height="44.44444444444444" x="650" y="355.5555555555556"></rect><rect width="50" height="44.44444444444444" x="700" y="355.5555555555556"></rect><rect width="50" height="44.44444444444444" x="750" y="355.5555555555556"></rect><rect width="50" height="44.44444444444444" x="800" y="355.5555555555556"></rect><rect width="50" height="44.44444444444444" x="0" y="400.00000000000006"></rect><rect width="50" height="44.44444444444444" x="50" y="400.00000000000006"></rect><rect width="50" height="44.44444444444444" x="100" y="400.00000000000006"></rect><rect width="50" height="44.44444444444444" x="150" y="400.00000000000006"></rect><rect width="50" height="44.44444444444444" x="200" y="400.00000000000006"></rect><rect width="50" height="44.44444444444444" x="250" y="400.00000000000006"></rect><rect width="50" height="44.44444444444444" x="300" y="400.00000000000006"></rect><rect width="50" height="44.44444444444444" x="350" y="400.00000000000006"></rect><rect width="50" height="44.44444444444444" x="400" y="400.00000000000006"></rect><rect width="50" height="44.44444444444444" x="450" y="400.00000000000006"></rect><rect width="50" height="44.44444444444444" x="500" y="400.00000000000006"></rect><rect width="50" height="44.44444444444444" x="550" y="400.00000000000006"></rect><rect width="50" height="44.44444444444444" x="600" y="400.00000000000006"></rect><rect width="50" height="44.44444444444444" x="650" y="400.00000000000006"></rect><rect width="50" height="44.44444444444444" x="700" y="400.00000000000006"></rect><rect width="50" height="44.44444444444444" x="750" y="400.00000000000006"></rect><rect width="50" height="44.44444444444444" x="800" y="400.00000000000006"></rect><rect width="50" height="44.44444444444444" x="0" y="444.4444444444445"></rect><rect width="50" height="44.44444444444444" x="50" y="444.4444444444445"></rect><rect width="50" height="44.44444444444444" x="100" y="444.4444444444445"></rect><rect width="50" height="44.44444444444444" x="150" y="444.4444444444445"></rect><rect width="50" height="44.44444444444444" x="200" y="444.4444444444445"></rect><rect width="50" height="44.44444444444444" x="250" y="444.4444444444445"></rect><rect width="50" height="44.44444444444444" x="300" y="444.4444444444445"></rect><rect width="50" height="44.44444444444444" x="350" y="444.4444444444445"></rect><rect width="50" height="44.44444444444444" x="400" y="444.4444444444445"></rect><rect width="50" height="44.44444444444444" x="450" y="444.4444444444445"></rect><rect width="50" height="44.44444444444444" x="500" y="444.4444444444445"></rect><rect width="50" height="44.44444444444444" x="550" y="444.4444444444445"></rect><rect width="50" height="44.44444444444444" x="600" y="444.4444444444445"></rect><rect width="50" height="44.44444444444444" x="650" y="444.4444444444445"></rect><rect width="50" height="44.44444444444444" x="700" y="444.4444444444445"></rect><rect width="50" height="44.44444444444444" x="750" y="444.4444444444445"></rect><rect width="50" height="44.44444444444444" x="800" y="444.4444444444445"></rect><rect width="50" height="44.44444444444444" x="0" y="488.88888888888897"></rect><rect width="50" height="44.44444444444444" x="50" y="488.88888888888897"></rect><rect width="50" height="44.44444444444444" x="100" y="488.88888888888897"></rect><rect width="50" height="44.44444444444444" x="150" y="488.88888888888897"></rect><rect width="50" height="44.44444444444444" x="200" y="488.88888888888897"></rect><rect width="50" height="44.44444444444444" x="250" y="488.88888888888897"></rect><rect width="50" height="44.44444444444444" x="300" y="488.88888888888897"></rect><rect width="50" height="44.44444444444444" x="350" y="488.88888888888897"></rect><rect width="50" height="44.44444444444444" x="400" y="488.88888888888897"></rect><rect width="50" height="44.44444444444444" x="450" y="488.88888888888897"></rect><rect width="50" height="44.44444444444444" x="500" y="488.88888888888897"></rect><rect width="50" height="44.44444444444444" x="550" y="488.88888888888897"></rect><rect width="50" height="44.44444444444444" x="600" y="488.88888888888897"></rect><rect width="50" height="44.44444444444444" x="650" y="488.88888888888897"></rect><rect width="50" height="44.44444444444444" x="700" y="488.88888888888897"></rect><rect width="50" height="44.44444444444444" x="750" y="488.88888888888897"></rect><rect width="50" height="44.44444444444444" x="800" y="488.88888888888897"></rect><rect width="50" height="44.44444444444444" x="0" y="533.3333333333334"></rect><rect width="50" height="44.44444444444444" x="50" y="533.3333333333334"></rect><rect width="50" height="44.44444444444444" x="100" y="533.3333333333334"></rect><rect width="50" height="44.44444444444444" x="150" y="533.3333333333334"></rect><rect width="50" height="44.44444444444444" x="200" y="533.3333333333334"></rect><rect width="50" height="44.44444444444444" x="250" y="533.3333333333334"></rect><rect width="50" height="44.44444444444444" x="300" y="533.3333333333334"></rect><rect width="50" height="44.44444444444444" x="350" y="533.3333333333334"></rect><rect width="50" height="44.44444444444444" x="400" y="533.3333333333334"></rect><rect width="50" height="44.44444444444444" x="450" y="533.3333333333334"></rect><rect width="50" height="44.44444444444444" x="500" y="533.3333333333334"></rect><rect width="50" height="44.44444444444444" x="550" y="533.3333333333334"></rect><rect width="50" height="44.44444444444444" x="600" y="533.3333333333334"></rect><rect width="50" height="44.44444444444444" x="650" y="533.3333333333334"></rect><rect width="50" height="44.44444444444444" x="700" y="533.3333333333334"></rect><rect width="50" height="44.44444444444444" x="750" y="533.3333333333334"></rect><rect width="50" height="44.44444444444444" x="800" y="533.3333333333334"></rect><rect width="50" height="44.44444444444444" x="0" y="577.7777777777778"></rect><rect width="50" height="44.44444444444444" x="50" y="577.7777777777778"></rect><rect width="50" height="44.44444444444444" x="100" y="577.7777777777778"></rect><rect width="50" height="44.44444444444444" x="150" y="577.7777777777778"></rect><rect width="50" height="44.44444444444444" x="200" y="577.7777777777778"></rect><rect width="50" height="44.44444444444444" x="250" y="577.7777777777778"></rect><rect width="50" height="44.44444444444444" x="300" y="577.7777777777778"></rect><rect width="50" height="44.44444444444444" x="350" y="577.7777777777778"></rect><rect width="50" height="44.44444444444444" x="400" y="577.7777777777778"></rect><rect width="50" height="44.44444444444444" x="450" y="577.7777777777778"></rect><rect width="50" height="44.44444444444444" x="500" y="577.7777777777778"></rect><rect width="50" height="44.44444444444444" x="550" y="577.7777777777778"></rect><rect width="50" height="44.44444444444444" x="600" y="577.7777777777778"></rect><rect width="50" height="44.44444444444444" x="650" y="577.7777777777778"></rect><rect width="50" height="44.44444444444444" x="700" y="577.7777777777778"></rect><rect width="50" height="44.44444444444444" x="750" y="577.7777777777778"></rect><rect width="50" height="44.44444444444444" x="800" y="577.7777777777778"></rect><rect width="50" height="44.44444444444444" x="0" y="622.2222222222223"></rect><rect width="50" height="44.44444444444444" x="50" y="622.2222222222223"></rect><rect width="50" height="44.44444444444444" x="100" y="622.2222222222223"></rect><rect width="50" height="44.44444444444444" x="150" y="622.2222222222223"></rect><rect width="50" height="44.44444444444444" x="200" y="622.2222222222223"></rect><rect width="50" height="44.44444444444444" x="250" y="622.2222222222223"></rect><rect width="50" height="44.44444444444444" x="300" y="622.2222222222223"></rect><rect width="50" height="44.44444444444444" x="350" y="622.2222222222223"></rect><rect width="50" height="44.44444444444444" x="400" y="622.2222222222223"></rect><rect width="50" height="44.44444444444444" x="450" y="622.2222222222223"></rect><rect width="50" height="44.44444444444444" x="500" y="622.2222222222223"></rect><rect width="50" height="44.44444444444444" x="550" y="622.2222222222223"></rect><rect width="50" height="44.44444444444444" x="600" y="622.2222222222223"></rect><rect width="50" height="44.44444444444444" x="650" y="622.2222222222223"></rect><rect width="50" height="44.44444444444444" x="700" y="622.2222222222223"></rect><rect width="50" height="44.44444444444444" x="750" y="622.2222222222223"></rect><rect width="50" height="44.44444444444444" x="800" y="622.2222222222223"></rect><rect width="50" height="44.44444444444444" x="0" y="666.6666666666667"></rect><rect width="50" height="44.44444444444444" x="50" y="666.6666666666667"></rect><rect width="50" height="44.44444444444444" x="100" y="666.6666666666667"></rect><rect width="50" height="44.44444444444444" x="150" y="666.6666666666667"></rect><rect width="50" height="44.44444444444444" x="200" y="666.6666666666667"></rect><rect width="50" height="44.44444444444444" x="250" y="666.6666666666667"></rect><rect width="50" height="44.44444444444444" x="300" y="666.6666666666667"></rect><rect width="50" height="44.44444444444444" x="350" y="666.6666666666667"></rect><rect width="50" height="44.44444444444444" x="400" y="666.6666666666667"></rect><rect width="50" height="44.44444444444444" x="450" y="666.6666666666667"></rect><rect width="50" height="44.44444444444444" x="500" y="666.6666666666667"></rect><rect width="50" height="44.44444444444444" x="550" y="666.6666666666667"></rect><rect width="50" height="44.44444444444444" x="600" y="666.6666666666667"></rect><rect width="50" height="44.44444444444444" x="650" y="666.6666666666667"></rect><rect width="50" height="44.44444444444444" x="700" y="666.6666666666667"></rect><rect width="50" height="44.44444444444444" x="750" y="666.6666666666667"></rect><rect width="50" height="44.44444444444444" x="800" y="666.6666666666667"></rect><rect width="50" height="44.44444444444444" x="0" y="711.1111111111112"></rect><rect width="50" height="44.44444444444444" x="50" y="711.1111111111112"></rect><rect width="50" height="44.44444444444444" x="100" y="711.1111111111112"></rect><rect width="50" height="44.44444444444444" x="150" y="711.1111111111112"></rect><rect width="50" height="44.44444444444444" x="200" y="711.1111111111112"></rect><rect width="50" height="44.44444444444444" x="250" y="711.1111111111112"></rect><rect width="50" height="44.44444444444444" x="300" y="711.1111111111112"></rect><rect width="50" height="44.44444444444444" x="350" y="711.1111111111112"></rect><rect width="50" height="44.44444444444444" x="400" y="711.1111111111112"></rect><rect width="50" height="44.44444444444444" x="450" y="711.1111111111112"></rect><rect width="50" height="44.44444444444444" x="500" y="711.1111111111112"></rect><rect width="50" height="44.44444444444444" x="550" y="711.1111111111112"></rect><rect width="50" height="44.44444444444444" x="600" y="711.1111111111112"></rect><rect width="50" height="44.44444444444444" x="650" y="711.1111111111112"></rect><rect width="50" height="44.44444444444444" x="700" y="711.1111111111112"></rect><rect width="50" height="44.44444444444444" x="750" y="711.1111111111112"></rect><rect width="50" height="44.44444444444444" x="800" y="711.1111111111112"></rect><rect width="50" height="44.44444444444444" x="0" y="755.5555555555557"></rect><rect width="50" height="44.44444444444444" x="50" y="755.5555555555557"></rect><rect width="50" height="44.44444444444444" x="100" y="755.5555555555557"></rect><rect width="50" height="44.44444444444444" x="150" y="755.5555555555557"></rect><rect width="50" height="44.44444444444444" x="200" y="755.5555555555557"></rect><rect width="50" height="44.44444444444444" x="250" y="755.5555555555557"></rect><rect width="50" height="44.44444444444444" x="300" y="755.5555555555557"></rect><rect width="50" height="44.44444444444444" x="350" y="755.5555555555557"></rect><rect width="50" height="44.44444444444444" x="400" y="755.5555555555557"></rect><rect width="50" height="44.44444444444444" x="450" y="755.5555555555557"></rect><rect width="50" height="44.44444444444444" x="500" y="755.5555555555557"></rect><rect width="50" height="44.44444444444444" x="550" y="755.5555555555557"></rect><rect width="50" height="44.44444444444444" x="600" y="755.5555555555557"></rect><rect width="50" height="44.44444444444444" x="650" y="755.5555555555557"></rect><rect width="50" height="44.44444444444444" x="700" y="755.5555555555557"></rect><rect width="50" height="44.44444444444444" x="750" y="755.5555555555557"></rect><rect width="50" height="44.44444444444444" x="800" y="755.5555555555557"></rect><rect width="50" height="44.44444444444444" x="0" y="800.0000000000001"></rect><rect width="50" height="44.44444444444444" x="50" y="800.0000000000001"></rect><rect width="50" height="44.44444444444444" x="100" y="800.0000000000001"></rect><rect width="50" height="44.44444444444444" x="150" y="800.0000000000001"></rect><rect width="50" height="44.44444444444444" x="200" y="800.0000000000001"></rect><rect width="50" height="44.44444444444444" x="250" y="800.0000000000001"></rect><rect width="50" height="44.44444444444444" x="300" y="800.0000000000001"></rect><rect width="50" height="44.44444444444444" x="350" y="800.0000000000001"></rect><rect width="50" height="44.44444444444444" x="400" y="800.0000000000001"></rect><rect width="50" height="44.44444444444444" x="450" y="800.0000000000001"></rect><rect width="50" height="44.44444444444444" x="500" y="800.0000000000001"></rect><rect width="50" height="44.44444444444444" x="550" y="800.0000000000001"></rect><rect width="50" height="44.44444444444444" x="600" y="800.0000000000001"></rect><rect width="50" height="44.44444444444444" x="650" y="800.0000000000001"></rect><rect width="50" height="44.44444444444444" x="700" y="800.0000000000001"></rect><rect width="50" height="44.44444444444444" x="750" y="800.0000000000001"></rect><rect width="50" height="44.44444444444444" x="800" y="800.0000000000001"></rect></g></svg>